<?xml version="1.0" encoding="UTF-8"?>
<svg version="1.1" xmlns="http://www.w3.org/2000/svg" width="500" height="125">
<path d="M0 0 C165 0 330 0 500 0 C500 41.25 500 82.5 500 125 C335 125 170 125 0 125 C0 83.75 0 42.5 0 0 Z " fill="#212529" transform="translate(0,0)"/>
<path d="M0 0 C1.15835696 -0.00573832 1.15835696 -0.00573832 2.34011507 -0.01159257 C4.93575569 -0.02193691 7.5311757 -0.01792775 10.12683105 -0.01396179 C11.98445338 -0.01830744 13.84207392 -0.02349009 15.69969177 -0.02944946 C20.75122747 -0.04286559 25.80268847 -0.0434153 30.85423851 -0.04088616 C35.06674381 -0.03981837 39.27923388 -0.04469482 43.49173594 -0.04949158 C53.42626485 -0.0605955 63.36075596 -0.061019 73.29528809 -0.05497742 C83.55580097 -0.04893373 93.81617685 -0.06125667 104.07666636 -0.08254749 C112.8767098 -0.10013871 121.67670954 -0.10616883 130.47676992 -0.10290974 C135.73679419 -0.10109301 140.99672072 -0.10377193 146.25672913 -0.11762428 C151.20120441 -0.13015799 156.14546539 -0.12830099 161.08993721 -0.11521339 C162.90764499 -0.11283842 164.72536765 -0.11561502 166.5430584 -0.12383652 C169.01845964 -0.13422813 171.49313159 -0.12626517 173.96850586 -0.11352539 C174.6931102 -0.12089968 175.41771455 -0.12827396 176.1642766 -0.13587171 C179.02743978 -0.10472608 181.01505168 -0.05381791 183.43054962 1.56533527 C185.22171973 4.44724726 184.83589143 6.97873708 184.48425293 10.26069641 C183.43012905 11.95521641 183.43012905 11.95521641 181.48425293 13.26069641 C178.90147763 13.55748661 176.55891838 13.66982636 173.97523499 13.64837646 C172.81793637 13.65645477 172.81793637 13.65645477 171.63725799 13.66469628 C169.0438592 13.6790397 166.45096625 13.67185658 163.85754395 13.66474915 C162.00154203 13.67044939 160.14554362 13.67741231 158.28955078 13.68554688 C153.24204987 13.70353179 148.19472229 13.70229988 143.14719892 13.69660449 C138.93726655 13.69352027 134.72736785 13.69959654 130.51744026 13.70564324 C120.58764832 13.71970442 110.65794238 13.71811398 100.72814941 13.70674133 C90.47556374 13.69525864 80.2232396 13.70933475 69.9706884 13.73613781 C61.17571496 13.75827161 52.38082375 13.76493742 43.58582443 13.7590614 C38.32965488 13.75568504 33.07365299 13.75815181 27.81750679 13.77531242 C22.87542866 13.79074252 17.93373889 13.78686988 12.99167633 13.76800728 C11.17600264 13.76431044 9.36030043 13.7674616 7.54465294 13.77789307 C5.06940141 13.79103031 2.59544936 13.77962123 0.12025452 13.76190186 C-0.60143699 13.77150686 -1.32312849 13.78111187 -2.06668943 13.79100794 C-5.42638503 13.74138532 -7.24958512 13.45429937 -9.99690342 11.45593357 C-11.51574707 9.26069641 -11.51574707 9.26069641 -11.45324707 5.63569641 C-9.72090099 -0.60074946 -5.55700032 -0.02898368 0 0 Z " fill="#FEFEFE" transform="translate(305.5157470703125,98.73930358886719)"/>
<path d="M0 0 C1.15729861 -0.00807831 1.15729861 -0.00807831 2.33797699 -0.01631981 C4.93137578 -0.03066324 7.52426873 -0.02348011 10.11769104 -0.01637268 C11.97369296 -0.02207293 13.82969136 -0.02903584 15.6856842 -0.03717041 C20.73318512 -0.05515532 25.7805127 -0.05392342 30.82803607 -0.04822803 C35.03796844 -0.04514381 39.24786714 -0.05122007 43.45779473 -0.05726677 C53.38758667 -0.07132796 63.3172926 -0.06973752 73.24708557 -0.05836487 C83.49967124 -0.04688218 93.75199538 -0.06095828 104.00454658 -0.08776134 C112.79952002 -0.10989515 121.59441123 -0.11656096 130.38941056 -0.11068493 C135.64558011 -0.10730857 140.90158199 -0.10977534 146.1577282 -0.12693596 C151.09980632 -0.14236605 156.04149609 -0.13849342 160.98355865 -0.11963081 C162.79923235 -0.11593397 164.61493456 -0.11908513 166.43058205 -0.1295166 C168.90583357 -0.14265385 171.37978562 -0.13124476 173.85498047 -0.11352539 C174.57667197 -0.1231304 175.29836347 -0.1327354 176.04192442 -0.14263147 C179.44134111 -0.09242218 181.20455602 0.16810918 183.93698215 2.26275539 C185.49098206 4.38768005 185.49098206 4.38768005 185.99098206 6.88768005 C185.31212754 10.28195261 184.23331997 11.28543557 181.49098206 13.38768005 C178.80801291 13.77860405 176.53574892 13.9245639 173.85498047 13.8888855 C172.69534187 13.89718709 172.69534187 13.89718709 171.51227623 13.9056564 C168.9194842 13.9192794 166.32765204 13.90428534 163.73487854 13.88938904 C161.87710663 13.89317159 160.01933754 13.89867111 158.16157532 13.90576172 C153.11413147 13.91974092 148.06702756 13.90852967 143.01960254 13.8920505 C137.74256788 13.87821802 132.46555331 13.88465795 127.18850708 13.88818359 C118.32711801 13.8908869 109.46586431 13.87739888 100.60450745 13.85423279 C90.3513438 13.82761412 80.09840639 13.82587812 69.84522003 13.83762115 C59.99087016 13.84838974 50.13660234 13.84221962 40.28225899 13.82806587 C36.08413319 13.82229891 31.8860673 13.8223943 27.6879406 13.82713127 C22.74752987 13.83189378 17.8073678 13.82182957 12.86700439 13.80017662 C11.05091757 13.79459896 9.2348069 13.79415239 7.41871834 13.79912949 C4.94553372 13.80505879 2.47311543 13.79262323 0 13.77536011 C-0.72392222 13.78137015 -1.44784445 13.7873802 -2.19370371 13.79357237 C-5.05464774 13.75709048 -7.04213306 13.70091113 -9.45489407 12.08220005 C-11.24716594 9.20109604 -10.86062435 6.66933986 -10.50901794 3.38768005 C-8.03618024 -0.58744376 -4.21727765 -0.03501209 0 0 Z " fill="#FEFEFE" transform="translate(20.509017944335938,13.612319946289063)"/>
<path d="M0 0 C4.77412019 3.11482232 9.11548256 7.83472892 10.921875 13.25390625 C11.56259707 20.93206744 11.81163496 27.95887803 6.921875 34.25390625 C1.55089523 40.06704901 -3.54115862 42.28016944 -11.453125 42.62890625 C-17.76394836 42.48333773 -22.21187433 40.94779887 -26.83203125 36.60546875 C-32.53824475 30.30800903 -33.54799784 24.82903615 -33.38671875 16.4140625 C-32.72205782 9.60759802 -29.02676191 5.8090164 -23.95703125 1.515625 C-17.02649018 -3.1383558 -7.60571573 -3.25285776 0 0 Z " fill="#F7F8F8" transform="translate(472.078125,41.74609375)"/>
<path d="M0 0 C9 0 9 0 11.04394531 1.44946289 C11.46772461 2.1171167 11.89150391 2.78477051 12.328125 3.47265625 C13.06289062 4.57577148 13.06289062 4.57577148 13.8125 5.70117188 C14.286875 6.48041016 14.76125 7.25964844 15.25 8.0625 C15.73984375 8.81466797 16.2296875 9.56683594 16.734375 10.34179688 C17.66210209 11.76669685 18.57701819 13.2000956 19.47363281 14.64477539 C21.54149773 17.83554521 23.7899892 20.90598487 26 24 C26.33 16.08 26.66 8.16 27 0 C29.97 0 32.94 0 36 0 C36 13.86 36 27.72 36 42 C28 42 28 42 25.78515625 40.26953125 C25.21667969 39.45871094 24.64820313 38.64789063 24.0625 37.8125 C23.08990234 36.46478516 23.08990234 36.46478516 22.09765625 35.08984375 C21.40542969 34.07019531 20.71320313 33.05054688 20 32 C19.16715641 30.81254334 18.33245657 29.62638684 17.49609375 28.44140625 C15.294429 25.31698837 13.15219227 22.16103239 11 19 C10.67 26.59 10.34 34.18 10 42 C6.7 42 3.4 42 0 42 C0 28.14 0 14.28 0 0 Z " fill="#FAFAFA" transform="translate(222,41)"/>
<path d="M0 0 C4.495371 2.98306505 8.47256815 6.83585092 9.80078125 12.15625 C9.95546875 13.26806641 9.95546875 13.26806641 10.11328125 14.40234375 C6.73257219 14.69267182 3.48410907 14.84754742 0.11328125 14.40234375 C-2.38671875 11.96484375 -2.38671875 11.96484375 -3.88671875 9.40234375 C-7.81439469 7.43850578 -12.60445374 7.92724038 -16.88671875 8.40234375 C-19.54235677 10.29922805 -20.45914402 11.5471943 -21.88671875 14.40234375 C-22.0082018 16.02400127 -22.06215527 17.65118702 -22.07421875 19.27734375 C-22.09548828 20.57285156 -22.09548828 20.57285156 -22.1171875 21.89453125 C-21.86915493 24.59346188 -21.36054176 26.14019681 -19.88671875 28.40234375 C-15.44646908 31.36251019 -11.09390416 31.17885386 -5.88671875 30.40234375 C-2.734493 28.17243846 -2.734493 28.17243846 -0.88671875 25.40234375 C0.11328125 24.40234375 0.11328125 24.40234375 2.3984375 24.3046875 C3.31496094 24.31628906 4.23148437 24.32789062 5.17578125 24.33984375 C6.09488281 24.34886719 7.01398438 24.35789062 7.9609375 24.3671875 C8.67121094 24.37878906 9.38148438 24.39039062 10.11328125 24.40234375 C8.80112223 29.97901957 7.38187928 34.13946819 2.4375 37.5625 C-3.88951998 41.34245412 -9.61401573 42.16904437 -16.88671875 41.40234375 C-23.05315498 39.60018105 -27.40713572 35.73253304 -30.88671875 30.40234375 C-33.71637025 24.60690631 -33.62740858 18.71729726 -32.88671875 12.40234375 C-30.4688014 5.89575929 -25.52936313 1.52721964 -19.63671875 -1.91015625 C-12.75022391 -3.63177996 -6.37165276 -3.18016772 0 0 Z " fill="#F6F6F6" transform="translate(410.88671875,42.59765625)"/>
<path d="M0 0 C2.97 0 5.94 0 9 0 C9.01458252 0.79172607 9.02916504 1.58345215 9.04418945 2.39916992 C9.11878356 5.99576543 9.21540833 9.59144443 9.3125 13.1875 C9.33505859 14.43337891 9.35761719 15.67925781 9.38085938 16.96289062 C9.41630859 18.16494141 9.45175781 19.36699219 9.48828125 20.60546875 C9.51446533 21.71043701 9.54064941 22.81540527 9.56762695 23.95385742 C10.08876863 27.62539032 11.35537551 30.35537551 14 33 C17.46623635 33.38513737 19.3087435 33.51133615 22.16113281 31.40136719 C24.5849703 28.2360903 24.53987802 26.22695262 24.609375 22.265625 C24.64160156 20.97011719 24.67382812 19.67460938 24.70703125 18.33984375 C24.72177469 16.97656698 24.73609222 15.61328555 24.75 14.25 C24.77816814 12.87105624 24.80809678 11.49214725 24.83984375 10.11328125 C24.91056725 6.74212784 24.96325504 3.3716672 25 0 C28.3 0 31.6 0 35 0 C35.12456859 4.26829471 35.2147864 8.53559796 35.2746582 12.80517578 C35.29964236 14.25425674 35.33364269 15.70321375 35.37719727 17.15185547 C35.80156872 31.64039633 35.80156872 31.64039633 31.44287109 37.56835938 C27.3012391 41.67775532 22.75636417 43.21764869 17 43.5625 C11.78757291 43.32192644 7.72006969 41.69570242 4 38 C-1.54373656 31.26132375 -0.4477774 23.33463309 -0.25 15.0625 C-0.22990977 13.60093585 -0.21166344 12.13934514 -0.1953125 10.67773438 C-0.15150336 7.11793226 -0.08261546 3.55913746 0 0 Z " fill="#F8F9F9" transform="translate(61,41)"/>
<path d="M0 0 C3.90238224 2.29551897 5.69436655 4.09752508 8.1875 7.875 C8.5 10.75 8.5 10.75 8.1875 12.875 C5.2175 12.875 2.2475 12.875 -0.8125 12.875 C-1.4725 11.555 -2.1325 10.235 -2.8125 8.875 C-5.55155345 7.50547327 -7.78337332 7.74878639 -10.8125 7.875 C-11.8025 8.37 -11.8025 8.37 -12.8125 8.875 C-12.8125 10.525 -12.8125 12.175 -12.8125 13.875 C-11.16701172 14.45507812 -11.16701172 14.45507812 -9.48828125 15.046875 C-8.03367153 15.57241142 -6.5792545 16.0984814 -5.125 16.625 C-4.40376953 16.87765625 -3.68253906 17.1303125 -2.93945312 17.390625 C1.89717995 19.1574316 6.75587952 21.01175904 9.1875 25.875 C9.57307539 30.50190464 9.61708838 32.96427264 7.625 37.1875 C3.24275658 42.01920429 -0.94635812 43.04322937 -7.25 43.375 C-12.83221044 43.20607479 -16.73300155 41.71452795 -20.8125 37.875 C-22.93543548 34.55791332 -23.8125 32.79938172 -23.8125 28.875 C-20.7607132 28.58155896 -17.85306358 28.42474233 -14.8125 28.875 C-13.43017557 30.50126404 -12.09312485 32.1675002 -10.8125 33.875 C-7.36852925 34.23127284 -4.94110495 34.43930248 -1.8125 32.875 C-1.8125 31.225 -1.8125 29.575 -1.8125 27.875 C-5.65984725 26.15597251 -9.39291223 24.68559943 -13.4375 23.5 C-17.60189182 22.15687704 -20.0006319 20.30196425 -22.8125 16.875 C-24.3672669 13.76546621 -24.09894437 11.31233239 -23.8125 7.875 C-18.86387683 -2.02224634 -9.77413935 -2.88417227 0 0 Z " fill="#F7F7F8" transform="translate(350.8125,41.125)"/>
<path d="M0 0 C9.24 0 18.48 0 28 0 C28 2.64 28 5.28 28 8 C22.06 8 16.12 8 10 8 C10 10.97 10 13.94 10 17 C15.61 17 21.22 17 27 17 C27 19.64 27 22.28 27 25 C21.39 25 15.78 25 10 25 C10 27.97 10 30.94 10 34 C16.27 34 22.54 34 29 34 C29 36.64 29 39.28 29 42 C19.43 42 9.86 42 0 42 C0 28.14 0 14.28 0 0 Z " fill="#F7F7F7" transform="translate(280,41)"/>
<path d="M0 0 C9.24 0 18.48 0 28 0 C28 2.64 28 5.28 28 8 C22.06 8 16.12 8 10 8 C10 10.97 10 13.94 10 17 C15.28 17 20.56 17 26 17 C26 19.64 26 22.28 26 25 C20.72 25 15.44 25 10 25 C10 27.97 10 30.94 10 34 C16.27 34 22.54 34 29 34 C29 36.64 29 39.28 29 42 C19.43 42 9.86 42 0 42 C0 28.14 0 14.28 0 0 Z " fill="#F9F9F9" transform="translate(173,41)"/>
<path d="M0 0 C3.3 0 6.6 0 10 0 C13.50236667 8.27154682 16.81640303 16.6007229 20 25 C21.78741424 22.31887863 22.80055903 20.13825578 23.91015625 17.1484375 C24.26013672 16.21515625 24.61011719 15.281875 24.97070312 14.3203125 C25.33099609 13.34835938 25.69128906 12.37640625 26.0625 11.375 C26.78012162 9.44440733 27.50004948 7.51466981 28.22265625 5.5859375 C28.53984619 4.7304834 28.85703613 3.8750293 29.18383789 2.99365234 C30 1 30 1 31 0 C32.68608966 -0.07205511 34.37500659 -0.08386068 36.0625 -0.0625 C36.98160156 -0.05347656 37.90070313 -0.04445312 38.84765625 -0.03515625 C39.55792969 -0.02355469 40.26820313 -0.01195312 41 0 C38.470567 7.85362413 35.60068357 15.57324621 32.70166016 23.29589844 C31.86689984 25.52159723 31.03686961 27.7490246 30.20703125 29.9765625 C29.67736759 31.3907315 29.14742989 32.8047979 28.6171875 34.21875 C28.3692746 34.88531616 28.12136169 35.55188232 27.86593628 36.23864746 C26.114545 40.885455 26.114545 40.885455 25 42 C23.31391034 42.07205511 21.62499341 42.08386068 19.9375 42.0625 C19.01839844 42.05347656 18.09929687 42.04445312 17.15234375 42.03515625 C16.44207031 42.02355469 15.73179687 42.01195312 15 42 C12.85958992 36.34157547 10.72345295 30.68156385 8.59130859 25.02001953 C7.86495125 23.09314136 7.13741576 21.16670689 6.40869141 19.24072266 C5.36312821 16.47673722 4.32177375 13.71119835 3.28125 10.9453125 C2.78908997 9.6483696 2.78908997 9.6483696 2.2869873 8.32522583 C1.98667603 7.52454681 1.68636475 6.7238678 1.37695312 5.89892578 C1.11047974 5.1927713 0.84400635 4.48661682 0.56945801 3.75906372 C0 2 0 2 0 0 Z " fill="#F9F9F9" transform="translate(114,41)"/>
<path d="M0 0 C3.20452995 1.74246316 5.02356979 3.14863594 7.0625 6.20703125 C7.63680821 11.02525339 7.64807505 15.64549779 5.9375 20.20703125 C2.57723941 23.79130921 -0.60002181 25.03984648 -5.4375 25.64453125 C-9.64302222 25.11884097 -11.70522984 23.91311789 -14.9375 21.20703125 C-17.8718063 16.5902558 -17.5800265 11.48828563 -16.9375 6.20703125 C-13.27925177 -0.19490315 -7.18983297 -2.94261309 0 0 Z " fill="#272B2E" transform="translate(465.9375,49.79296875)"/>
<path d="M0 0 C3.3 0 6.6 0 10 0 C10.07451364 4.3049777 10.12877223 8.60960734 10.16479492 12.91503906 C10.17982196 14.37767075 10.20024955 15.84025782 10.22631836 17.30273438 C10.26297267 19.4128728 10.27978676 21.52241226 10.29296875 23.6328125 C10.3086792 24.90012207 10.32438965 26.16743164 10.34057617 27.47314453 C9.84279027 32.62799408 8.27119691 35.8528223 4.4375 39.3125 C0.45647292 42.06859567 -1.77672807 42.11003208 -6.625 42.0625 C-7.81351563 42.05347656 -9.00203125 42.04445312 -10.2265625 42.03515625 C-11.14179688 42.02355469 -12.05703125 42.01195312 -13 42 C-13 39.03 -13 36.06 -13 33 C-11.576875 32.87625 -10.15375 32.7525 -8.6875 32.625 C-5.19426202 32.32124018 -4.03525486 32.02350324 -1 30 C-0.48779459 26.89786275 -0.48779459 26.89786275 -0.48828125 23.2421875 C-0.47033005 22.57913605 -0.45237885 21.91608459 -0.43388367 21.23294067 C-0.37967076 19.11369197 -0.34585229 16.99466975 -0.3125 14.875 C-0.27933633 13.43877048 -0.24484755 12.0025709 -0.20898438 10.56640625 C-0.12394036 7.04448871 -0.05718127 3.52249241 0 0 Z " fill="#F7F8F8" transform="translate(29,41)"/>
</svg>
